<?xml version="1.0" standalone="no"?>
<!DOCTYPE svg PUBLIC "-//W3C//DTD SVG 20010904//EN"
 "http://www.w3.org/TR/2001/REC-SVG-20010904/DTD/svg10.dtd">
<svg version="1.0" xmlns="http://www.w3.org/2000/svg"
 width="1000.000000pt" height="500.000000pt" viewBox="0 0 1000.000000 500.000000"
 preserveAspectRatio="xMidYMid meet">

<g transform="translate(0.000000,500.000000) scale(0.100000,-0.100000)"
fill="#000000" stroke="none">
<path d="M4150 4610 c0 -5 5 -10 10 -10 6 0 10 5 10 10 0 6 -4 10 -10 10 -5 0
-10 -4 -10 -10z"/>
<path d="M4653 4600 c-3 -11 -8 -20 -12 -20 -3 0 -4 -22 -3 -50 5 -62 22 -66
22 -6 0 34 4 46 18 49 16 4 16 5 0 6 -10 0 -18 5 -18 11 0 5 8 14 18 19 16 10
16 10 -1 11 -11 0 -21 -9 -24 -20z"/>
<path d="M5110 4550 c0 -40 4 -70 10 -70 6 0 10 30 10 70 0 40 -4 70 -10 70
-6 0 -10 -30 -10 -70z"/>
<path d="M5513 4600 c-3 -11 -10 -20 -15 -20 -7 0 -7 -4 0 -13 6 -7 12 -30 15
-52 l4 -40 1 47 c2 35 6 48 20 51 16 4 16 5 0 6 -10 0 -18 5 -18 11 0 5 8 14
18 19 16 10 16 10 -1 11 -11 0 -21 -9 -24 -20z"/>
<path d="M5910 4610 c0 -5 5 -10 10 -10 6 0 10 5 10 10 0 6 -4 10 -10 10 -5 0
-10 -4 -10 -10z"/>
<path d="M5964 4598 c-11 -28 -6 -118 7 -118 5 0 9 20 9 45 0 29 4 45 13 45 8
0 7 4 -3 10 -13 9 -12 12 4 25 20 15 20 15 0 15 -12 0 -25 -10 -30 -22z"/>
<path d="M6022 4601 c-9 -26 -2 -121 9 -121 5 0 9 20 9 44 0 26 5 46 13 49 10
4 10 6 0 6 -19 1 -15 29 5 34 12 4 11 5 -6 6 -14 1 -25 -6 -30 -18z"/>
<path d="M3507 4592 c-49 -54 15 -142 73 -101 12 8 10 10 -9 5 -38 -8 -61 10
-61 49 0 39 23 57 61 49 19 -5 21 -3 9 5 -23 16 -55 13 -73 -7z"/>
<path d="M4759 4576 c12 -18 21 -47 21 -65 0 -17 5 -31 10 -31 6 0 10 15 10
33 0 17 9 47 20 65 24 38 10 44 -15 5 l-18 -26 -14 26 c-7 15 -18 27 -24 27
-6 0 -1 -15 10 -34z"/>
<path d="M4901 4599 c1 -27 35 -113 46 -116 12 -4 59 114 50 124 -4 3 -11 -6
-17 -21 -5 -14 -15 -38 -21 -53 l-11 -28 -17 47 c-17 49 -32 72 -30 47z"/>
<path d="M5790 4545 l0 -65 30 0 c37 0 70 31 70 65 0 34 -33 65 -70 65 l-30 0
0 -65z m61 45 c13 -7 19 -21 19 -45 0 -35 -20 -55 -54 -55 -13 0 -16 12 -16
55 0 59 9 67 51 45z"/>
<path d="M6562 4598 c3 -7 13 -37 23 -66 9 -29 22 -51 27 -50 13 5 59 128 47
128 -4 0 -17 -24 -27 -52 l-20 -53 -11 28 c-6 15 -14 39 -17 52 -3 14 -11 25
-16 25 -6 0 -8 -6 -6 -12z"/>
<path d="M6449 4588 c-6 -66 8 -108 34 -108 20 1 20 2 5 11 -12 6 -18 22 -18
44 0 24 5 35 18 38 16 4 16 5 0 6 -10 0 -18 6 -18 11 0 15 -20 12 -21 -2z"/>
<path d="M3621 4571 c-8 -5 -14 -24 -14 -41 0 -52 54 -70 75 -25 22 49 -19 93
-61 66z m49 -40 c0 -26 -21 -43 -37 -30 -16 14 -17 41 -1 57 14 14 38 -2 38
-27z"/>
<path d="M3710 4528 c0 -59 18 -64 22 -5 2 29 8 42 18 42 10 0 16 -13 18 -42
2 -24 7 -43 12 -43 5 0 10 19 12 43 4 60 31 58 39 -3 l6 -45 1 48 c2 51 -15
70 -42 48 -9 -8 -16 -8 -20 -2 -4 5 -20 9 -36 9 -29 -1 -30 -3 -30 -50z"/>
<path d="M3870 4509 c0 -39 4 -69 10 -69 6 0 10 10 10 23 0 18 5 23 28 22 25
0 27 3 30 43 2 23 0 43 -5 43 -4 1 -23 3 -40 5 l-33 2 0 -69z m70 22 c0 -26
-21 -43 -37 -30 -16 14 -17 41 -1 57 14 14 38 -2 38 -27z"/>
<path d="M3985 4570 c-4 -6 3 -9 16 -7 12 1 24 -4 26 -10 3 -8 -4 -13 -15 -13
-11 0 -25 -7 -32 -15 -18 -21 3 -44 41 -43 27 1 29 4 29 38 0 20 -5 41 -12 48
-15 15 -45 16 -53 2z m45 -54 c0 -20 -19 -31 -32 -18 -6 6 -7 15 -4 21 10 16
36 13 36 -3z"/>
<path d="M4080 4529 c0 -27 5 -49 10 -49 6 0 10 18 10 40 0 26 6 42 17 48 13
8 11 10 -10 10 -26 0 -27 -3 -27 -49z"/>
<path d="M4150 4530 c0 -27 5 -50 10 -50 6 0 10 23 10 50 0 28 -4 50 -10 50
-5 0 -10 -22 -10 -50z"/>
<path d="M4193 4564 c-6 -16 13 -38 40 -47 6 -2 7 -9 3 -15 -4 -7 -16 -10 -27
-7 -11 4 -19 2 -19 -4 0 -16 46 -13 60 4 10 12 10 18 0 30 -7 8 -19 15 -27 15
-8 0 -13 6 -10 13 2 6 12 11 21 11 9 -1 16 2 16 7 0 16 -50 9 -57 -7z"/>
<path d="M4291 4566 c-31 -37 9 -103 47 -80 36 23 23 94 -18 94 -10 0 -23 -6
-29 -14z m49 -36 c0 -30 -21 -45 -39 -27 -23 23 -4 71 25 60 8 -3 14 -18 14
-33z"/>
<path d="M4380 4528 c0 -26 5 -48 10 -48 6 0 10 18 10 39 0 24 5 41 14 44 20
8 26 -2 26 -45 0 -21 5 -38 10 -38 12 0 13 69 2 87 -4 6 -22 11 -40 11 -32 -1
-32 -2 -32 -50z"/>
<path d="M4553 4573 c-7 -2 -13 -22 -13 -44 0 -33 3 -39 27 -45 19 -5 30 -2
40 11 33 47 -3 99 -54 78z m47 -43 c0 -30 -21 -45 -39 -27 -23 23 -4 71 25 60
8 -3 14 -18 14 -33z"/>
<path d="M5015 4570 c-4 -6 3 -9 16 -7 12 1 24 -4 26 -10 3 -8 -4 -13 -15 -13
-11 0 -25 -7 -32 -15 -18 -21 3 -44 41 -43 27 1 29 4 29 38 0 20 -5 41 -12 48
-15 15 -45 16 -53 2z m45 -54 c0 -20 -19 -31 -32 -18 -6 6 -7 15 -4 21 10 16
36 13 36 -3z"/>
<path d="M5151 4558 c2 -55 14 -73 47 -73 32 -1 32 -1 31 50 -1 50 -1 50 -9
12 -13 -71 -50 -76 -50 -6 0 21 -4 39 -10 39 -5 0 -10 -10 -9 -22z"/>
<path d="M5272 4568 c-7 -7 -12 -24 -12 -38 0 -14 5 -31 12 -38 15 -15 55 -16
64 0 5 8 0 9 -16 5 -24 -6 -50 7 -50 24 0 5 16 9 35 9 22 0 35 5 35 13 0 18
-21 37 -40 37 -9 0 -21 -5 -28 -12z m46 -16 c2 -7 -7 -12 -23 -12 -24 0 -26 2
-15 15 14 17 31 16 38 -3z"/>
<path d="M5363 4564 c-6 -16 13 -38 40 -47 6 -2 7 -9 3 -15 -4 -7 -16 -10 -27
-7 -11 4 -19 2 -19 -4 0 -15 43 -14 58 1 18 18 15 26 -20 44 -27 14 -29 18
-15 26 10 5 22 6 27 3 6 -3 10 -1 10 4 0 18 -50 13 -57 -5z"/>
<path d="M5571 4566 c-31 -37 9 -103 47 -80 36 23 23 94 -18 94 -10 0 -23 -6
-29 -14z m49 -36 c0 -30 -21 -45 -39 -27 -23 23 -4 71 25 60 8 -3 14 -18 14
-33z"/>
<path d="M5660 4528 c0 -26 5 -48 10 -48 6 0 10 15 10 34 0 24 7 39 21 50 21
14 21 15 -10 14 -30 -1 -31 -2 -31 -50z"/>
<path d="M5910 4530 c0 -27 5 -50 10 -50 6 0 10 23 10 50 0 28 -4 50 -10 50
-5 0 -10 -22 -10 -50z"/>
<path d="M6080 4560 c-17 -32 -4 -69 26 -76 15 -4 30 -2 37 6 10 10 8 12 -5 7
-24 -8 -48 2 -48 19 0 9 12 14 35 14 31 0 34 2 26 23 -11 31 -56 35 -71 7z
m60 -11 c0 -5 -11 -9 -25 -9 -26 0 -34 15 -12 23 16 5 37 -3 37 -14z"/>
<path d="M6180 4529 c0 -27 5 -49 10 -49 6 0 10 18 10 40 0 26 6 42 17 48 13
8 11 10 -10 10 -26 0 -27 -3 -27 -49z"/>
<path d="M6252 4568 c-7 -7 -12 -24 -12 -38 0 -14 5 -31 12 -38 15 -15 55 -16
64 0 5 8 2 9 -9 5 -22 -8 -47 2 -47 19 0 9 11 14 30 14 18 0 30 5 30 13 0 18
-21 37 -40 37 -9 0 -21 -5 -28 -12z m48 -13 c11 -13 8 -15 -14 -15 -25 0 -33
10 -19 23 10 11 19 8 33 -8z"/>
<path d="M6352 4525 c1 -42 2 -44 5 -13 4 39 28 67 43 52 5 -5 11 -27 13 -49
3 -33 4 -31 3 10 -1 49 -1 50 -33 50 l-33 1 2 -51z"/>
<path d="M6685 4558 c8 -42 24 -78 34 -78 5 0 16 21 25 47 19 55 19 53 6 53
-5 0 -10 -4 -10 -9 0 -5 -5 -22 -11 -38 l-11 -28 -19 40 c-15 30 -18 33 -14
13z"/>
<path d="M1250 4281 l0 -120 -27 -4 -28 -4 28 -2 27 -1 0 -324 0 -325 -27 -4
-28 -4 28 -2 27 -1 0 -319 0 -320 -27 -4 -28 -4 28 -2 27 -1 0 -319 0 -320
-27 -4 -28 -4 28 -2 27 -1 0 -324 0 -325 -27 -4 -28 -4 28 -2 27 -1 0 -319 0
-320 -27 -4 -28 -4 28 -2 27 -1 0 -170 0 -170 469 0 470 0 4 -27 4 -28 2 28 1
27 744 0 745 0 4 -27 4 -28 2 28 1 27 744 0 745 0 4 -27 4 -28 2 28 1 27 739
0 740 0 4 -28 4 -27 2 28 1 27 744 0 745 0 4 -27 4 -28 2 28 1 27 410 0 410 0
0 1930 0 1930 -3880 0 -3880 0 0 -119z m7750 -1811 l0 -1920 -3870 0 -3870 0
0 1920 0 1920 3870 0 3870 0 0 -1920z"/>
<path d="M1779 4213 c10 -26 23 -49 28 -50 5 -2 16 15 23 38 l14 42 19 -41
c10 -23 21 -42 26 -42 9 0 33 72 26 79 -3 2 -10 -11 -16 -29 l-12 -33 -18 38
c-26 52 -25 52 -46 4 l-19 -42 -13 41 c-8 23 -18 42 -22 42 -5 0 0 -21 10 -47z"/>
<path d="M2058 4235 c-8 -19 -8 -31 0 -50 19 -42 62 -25 62 25 0 50 -43 67
-62 25z m47 -5 c8 -26 -3 -62 -18 -57 -7 2 -13 14 -15 26 -7 45 20 71 33 31z"/>
<path d="M2188 4236 c-16 -37 3 -79 35 -74 19 3 22 9 22 48 0 39 -3 45 -22 48
-16 2 -26 -4 -35 -22z m47 -27 c0 -24 -5 -34 -15 -34 -16 0 -25 37 -16 62 10
26 31 8 31 -28z"/>
<path d="M2280 4241 c0 -10 9 -21 20 -24 27 -7 25 -35 -2 -47 -23 -9 -23 -9
-2 -9 45 -2 57 55 14 66 -27 7 -25 21 3 26 19 4 18 4 -5 6 -21 1 -28 -4 -28
-18z"/>
<path d="M1480 4235 c-8 -10 -30 -15 -61 -15 -27 0 -49 -4 -49 -10 0 -5 21
-10 48 -10 36 0 50 -5 60 -20 7 -11 23 -20 37 -20 14 0 30 9 37 20 10 15 24
20 60 20 27 0 48 5 48 10 0 6 -22 10 -49 10 -31 0 -53 5 -61 15 -7 8 -23 15
-35 15 -12 0 -28 -7 -35 -15z"/>
<path d="M1963 4223 c15 -2 37 -2 50 0 12 2 0 4 -28 4 -27 0 -38 -2 -22 -4z"/>
<path d="M1963 4193 c15 -2 37 -2 50 0 12 2 0 4 -28 4 -27 0 -38 -2 -22 -4z"/>
<path d="M1779 4013 c10 -26 23 -49 28 -50 5 -2 16 15 23 38 l14 42 19 -41
c10 -23 21 -42 26 -42 9 0 33 72 26 79 -3 2 -10 -11 -16 -29 l-12 -33 -18 38
c-26 52 -25 52 -46 4 l-19 -42 -13 41 c-8 23 -18 42 -22 42 -5 0 0 -21 10 -47z"/>
<path d="M2058 4035 c-8 -19 -8 -31 0 -50 19 -42 62 -25 62 25 0 50 -43 67
-62 25z m47 -5 c8 -26 -3 -62 -18 -57 -7 2 -13 14 -15 26 -7 45 20 71 33 31z"/>
<path d="M2190 4049 c0 -5 5 -7 10 -4 6 4 10 -10 10 -34 0 -22 -5 -42 -12 -44
-7 -3 3 -5 22 -5 19 0 29 2 23 5 -8 3 -13 23 -13 49 0 37 -3 44 -20 44 -11 0
-20 -5 -20 -11z"/>
<path d="M1963 4023 c15 -2 37 -2 50 0 12 2 0 4 -28 4 -27 0 -38 -2 -22 -4z"/>
<path d="M1963 3993 c15 -2 37 -2 50 0 12 2 0 4 -28 4 -27 0 -38 -2 -22 -4z"/>
<path d="M8618 1794 c-13 -13 -65 -20 -250 -35 -128 -10 -546 -43 -928 -73
-613 -49 -696 -54 -710 -41 -24 21 -56 18 -74 -6 -17 -25 127 6 -1545 -325
-837 -166 -1048 -205 -1062 -195 -27 16 -56 14 -71 -8 -12 -16 -57 -21 -503
-48 -415 -26 -492 -28 -506 -17 -23 20 -56 17 -72 -7 -13 -17 -112 -42 -633
-159 -378 -84 -623 -135 -628 -129 -14 13 -50 11 -64 -3 -15 -15 -15 -51 0
-66 27 -27 78 -7 78 30 0 10 1 18 3 18 2 0 450 100 969 216 246 55 259 56 277
40 25 -23 63 -17 76 12 5 12 15 22 20 22 6 0 227 13 490 30 l478 30 15 -21
c19 -27 63 -22 77 9 12 27 -15 20 320 86 1045 206 1936 383 2087 413 170 35
179 36 197 19 25 -23 63 -17 76 12 5 12 17 22 25 22 8 0 426 32 928 71 l913
72 15 -21 c27 -39 84 -23 84 23 0 43 -50 61 -82 29z"/>
<path d="M960 4189 c0 -5 5 -7 10 -4 6 4 10 -10 10 -34 0 -22 -5 -42 -12 -44
-7 -3 3 -5 22 -5 19 0 27 2 18 5 -14 3 -18 15 -18 49 0 32 -4 44 -15 44 -8 0
-15 -5 -15 -11z"/>
<path d="M1076 4192 c-3 -6 2 -8 14 -5 34 9 36 -24 4 -58 l-28 -29 40 1 c31 2
34 3 10 6 l-28 5 22 23 c12 13 20 31 18 42 -3 19 -42 30 -52 15z"/>
<path d="M1030 4110 c0 -5 5 -10 10 -10 6 0 10 5 10 10 0 6 -4 10 -10 10 -5 0
-10 -4 -10 -10z"/>
<path d="M960 3539 c0 -5 5 -7 10 -4 6 4 10 -10 10 -34 0 -22 -5 -42 -12 -44
-7 -3 3 -5 22 -5 19 0 27 2 18 5 -14 3 -18 15 -18 49 0 32 -4 44 -15 44 -8 0
-15 -5 -15 -11z"/>
<path d="M1082 3538 c-17 -17 -15 -63 4 -79 22 -18 48 0 52 35 6 45 -29 71
-56 44z m43 -18 c7 -23 -2 -60 -15 -60 -18 0 -31 39 -20 60 6 11 15 20 20 20
5 0 12 -9 15 -20z"/>
<path d="M1030 3460 c0 -5 5 -10 10 -10 6 0 10 5 10 10 0 6 -4 10 -10 10 -5 0
-10 -4 -10 -10z"/>
<path d="M962 2888 c-26 -26 -8 -88 25 -88 23 0 38 46 25 75 -13 27 -31 32
-50 13z m33 -38 c0 -38 -20 -52 -30 -21 -8 27 3 63 18 58 7 -2 12 -19 12 -37z"/>
<path d="M1081 2886 c-8 -9 -9 -16 -2 -21 7 -4 6 -13 -2 -26 -10 -16 -9 -21 3
-29 8 -6 24 -9 35 -8 17 3 20 10 20 48 0 38 -4 45 -21 48 -11 2 -26 -4 -33
-12z m39 -11 c0 -8 -7 -15 -15 -15 -8 0 -15 7 -15 15 0 8 7 15 15 15 8 0 15
-7 15 -15z m5 -45 c0 -8 -8 -16 -17 -18 -13 -2 -18 3 -18 18 0 15 5 20 18 18
9 -2 17 -10 17 -18z"/>
<path d="M1030 2810 c0 -5 5 -10 10 -10 6 0 10 5 10 10 0 6 -4 10 -10 10 -5 0
-10 -4 -10 -10z"/>
<path d="M763 2694 c-13 -36 33 -68 62 -44 16 13 20 46 7 54 -5 3 -8 -4 -8
-16 1 -12 -5 -23 -11 -25 -8 -3 -13 5 -13 21 0 29 -27 36 -37 10z m23 -31
c-11 -11 -19 6 -11 24 8 17 8 17 12 0 3 -10 2 -21 -1 -24z"/>
<path d="M790 2611 c22 -4 35 -12 35 -21 0 -9 -13 -18 -35 -22 l-35 -6 40 1
c36 2 40 5 41 30 1 25 -1 27 -40 26 l-41 -2 35 -6z"/>
<path d="M758 2523 c18 -2 45 -2 60 0 15 2 0 4 -33 4 -33 0 -45 -2 -27 -4z"/>
<path d="M767 2483 c-4 -3 -7 -16 -6 -27 0 -19 1 -19 11 4 l11 25 6 -25 c10
-36 46 -34 47 3 1 24 -3 27 -31 27 -17 0 -35 -3 -38 -7z m58 -21 c0 -18 -20
-15 -23 4 -3 10 1 15 10 12 7 -3 13 -10 13 -16z"/>
<path d="M745 2421 c3 -5 22 -15 43 -22 l37 -12 -44 -19 c-24 -10 -42 -21 -39
-23 6 -6 98 32 98 40 0 5 -85 45 -96 45 -3 0 -3 -4 1 -9z"/>
<path d="M758 2282 l23 -21 -20 -13 c-12 -7 -21 -17 -21 -22 0 -4 7 -3 15 4 8
7 32 18 52 26 35 12 36 13 10 14 -15 0 -40 7 -55 16 l-27 16 23 -20z"/>
<path d="M962 2228 c-26 -26 -8 -88 25 -88 23 0 38 46 25 75 -13 27 -31 32
-50 13z m33 -38 c0 -18 -5 -35 -12 -37 -15 -5 -26 31 -18 58 10 31 30 17 30
-21z"/>
<path d="M1080 2221 c-23 -45 3 -96 38 -74 25 15 21 46 -8 60 l-24 12 24 10
c24 9 24 10 3 10 -12 1 -27 -8 -33 -18z m47 -37 c8 -21 -13 -42 -28 -27 -13
13 -5 43 11 43 6 0 13 -7 17 -16z"/>
<path d="M1030 2150 c0 -5 5 -10 10 -10 6 0 10 5 10 10 0 6 -4 10 -10 10 -5 0
-10 -4 -10 -10z"/>
<path d="M962 1578 c-26 -26 -8 -88 25 -88 23 0 38 46 25 75 -13 27 -31 32
-50 13z m33 -38 c0 -18 -5 -35 -12 -37 -15 -5 -26 31 -18 58 10 31 30 17 30
-21z"/>
<path d="M1091 1564 c-26 -33 -26 -44 -1 -44 11 0 20 -7 20 -15 0 -21 18 -19
22 3 5 26 -3 82 -12 82 -5 0 -18 -12 -29 -26z m19 -14 c0 -11 -7 -20 -15 -20
-13 0 -13 3 -3 20 7 11 14 20 15 20 2 0 3 -9 3 -20z"/>
<path d="M1030 1500 c0 -5 5 -10 10 -10 6 0 10 5 10 10 0 6 -4 10 -10 10 -5 0
-10 -4 -10 -10z"/>
<path d="M962 928 c-26 -26 -8 -88 25 -88 23 0 38 46 25 75 -13 27 -31 32 -50
13z m33 -38 c0 -38 -20 -52 -30 -21 -8 27 3 63 18 58 7 -2 12 -19 12 -37z"/>
<path d="M1076 932 c-3 -5 4 -8 16 -8 31 1 32 -18 3 -53 l-27 -31 39 1 c31 2
33 3 9 6 l-28 5 22 23 c12 13 20 31 18 42 -3 19 -42 31 -52 15z"/>
<path d="M1030 850 c0 -5 5 -10 10 -10 6 0 10 5 10 10 0 6 -4 10 -10 10 -5 0
-10 -4 -10 -10z"/>
<path d="M2156 432 c-3 -6 2 -8 13 -5 31 8 35 -17 7 -46 -34 -35 -33 -41 7
-40 25 1 27 3 9 6 l-24 5 22 23 c12 13 20 31 18 42 -3 19 -42 30 -52 15z"/>
<path d="M3678 430 c26 -11 29 -30 5 -30 -15 0 -15 -1 2 -13 22 -17 11 -41
-16 -34 -11 3 -19 1 -19 -4 0 -15 46 -10 60 6 6 8 8 20 4 27 -5 7 -8 22 -9 33
0 14 -8 21 -25 22 -25 3 -25 3 -2 -7z"/>
<path d="M5181 414 c-26 -33 -26 -44 -1 -44 11 0 20 -7 20 -15 0 -21 18 -19
22 3 5 26 -3 82 -12 82 -5 0 -18 -12 -29 -26z m19 -14 c0 -11 -7 -20 -15 -20
-13 0 -13 3 -3 20 7 11 14 20 15 20 2 0 3 -9 3 -20z"/>
<path d="M6650 421 c0 -13 8 -21 23 -23 14 -2 22 -10 22 -23 0 -14 -6 -20 -22
-19 -13 0 -23 -3 -23 -8 0 -15 49 -8 59 9 11 21 -3 53 -24 53 -24 0 -17 18 8
23 16 3 13 5 -10 6 -26 1 -33 -3 -33 -18z"/>
<path d="M8162 428 c-32 -32 1 -104 36 -81 25 15 21 46 -8 60 l-24 12 24 10
c22 9 23 10 5 10 -12 1 -26 -4 -33 -11z m40 -40 c7 -19 -2 -38 -18 -38 -8 0
-14 8 -14 18 0 30 23 44 32 20z"/>
<path d="M5120 205 c0 -30 5 -55 10 -55 6 0 10 25 10 55 0 30 -4 55 -10 55 -5
0 -10 -25 -10 -55z"/>
<path d="M4702 238 c-7 -7 -12 -24 -12 -38 0 -14 5 -31 12 -38 13 -13 54 -16
62 -4 2 4 -7 8 -21 7 -33 0 -52 28 -37 53 6 9 23 17 37 17 14 -1 23 3 21 7 -8
12 -49 9 -62 -4z"/>
<path d="M5297 243 c-14 -14 -6 -34 18 -45 14 -6 25 -18 25 -26 0 -10 -8 -13
-25 -10 -14 3 -25 1 -25 -3 0 -15 47 -10 61 7 11 14 10 18 -6 30 -10 8 -25 14
-33 14 -7 0 -12 6 -9 13 2 6 14 12 26 11 11 0 21 3 21 8 0 10 -44 11 -53 1z"/>
<path d="M4820 219 l25 -12 -25 -6 c-36 -10 -34 -46 3 -47 26 -1 28 1 25 35
-3 30 -7 36 -28 38 l-25 3 25 -11z m20 -39 c0 -12 -28 -25 -36 -17 -9 9 6 27
22 27 8 0 14 -5 14 -10z"/>
<path d="M4881 171 c1 -32 4 -48 7 -36 4 11 16 20 27 20 16 0 20 7 20 35 0 31
-3 35 -27 36 -27 1 -28 0 -27 -55z m44 19 c0 -13 -6 -25 -12 -27 -16 -6 -27
21 -19 43 9 23 31 11 31 -16z"/>
<path d="M4967 223 c-13 -13 -7 -31 13 -36 11 -3 20 -11 20 -17 0 -7 -8 -10
-20 -7 -11 3 -20 1 -20 -5 0 -13 53 -6 57 9 2 6 -8 18 -24 27 l-28 15 25 10
c22 9 23 10 4 10 -11 1 -24 -2 -27 -6z"/>
<path d="M5030 216 c0 -8 4 -26 10 -40 7 -19 16 -25 35 -24 22 2 25 7 24 43
-1 41 -3 40 -13 -7 -9 -42 -36 -36 -36 7 0 19 -4 35 -10 35 -5 0 -10 -6 -10
-14z"/>
<path d="M5172 218 c-29 -29 -8 -70 36 -67 10 1 7 4 -7 8 -37 10 -38 31 -2 31
17 0 31 4 31 8 0 12 -22 32 -35 32 -6 0 -16 -5 -23 -12z m38 -8 c0 -5 -9 -10
-21 -10 -11 0 -17 5 -14 10 3 6 13 10 21 10 8 0 14 -4 14 -10z"/>
<path d="M5383 190 c0 -25 2 -35 4 -22 2 12 2 32 0 45 -2 12 -4 2 -4 -23z"/>
<path d="M5428 223 c27 -5 28 -15 2 -38 -28 -26 -25 -35 13 -34 23 1 26 3 9 6
l-22 4 20 29 c27 37 26 40 -12 39 -24 -1 -27 -3 -10 -6z"/>
<path d="M5494 216 c-3 -8 -4 -25 -2 -38 2 -18 10 -23 33 -25 27 -2 28 -1 6 5
-37 11 -38 32 -2 32 33 0 39 8 19 28 -16 16 -47 15 -54 -2z m46 -6 c0 -5 -9
-10 -21 -10 -11 0 -17 5 -14 10 3 6 13 10 21 10 8 0 14 -4 14 -10z"/>
</g>
</svg>
